<?xml version="1.0" encoding="utf-8"?>
<!-- Generator: Adobe Illustrator 22.0.1, SVG Export Plug-In . SVG Version: 6.00 Build 0)  -->
<svg version="1.1" id="Layer_1" xmlns="http://www.w3.org/2000/svg" xmlns:xlink="http://www.w3.org/1999/xlink" x="0px" y="0px"
	 viewBox="0 0 648 208" style="enable-background:new 0 0 648 208;" xml:space="preserve">
<style type="text/css">
	.st0{fill:url(#SVGID_1_);}
	.st1{fill:url(#SVGID_2_);}
	.st2{fill:url(#SVGID_3_);}
	.st3{fill:url(#SVGID_4_);}
	.st4{fill:url(#SVGID_5_);}
	.st5{fill:url(#SVGID_6_);}
</style>
<g>
	<g>
		<g>
			
				<linearGradient id="SVGID_1_" gradientUnits="userSpaceOnUse" x1="74.7727" y1="127.0464" x2="74.7727" y2="31.997" gradientTransform="matrix(1 0 0 -1 0 210)">
				<stop  offset="0" style="stop-color:#FCF500"/>
				<stop  offset="1" style="stop-color:#9DA500"/>
			</linearGradient>
			<path class="st0" d="M70.6,126.2c-5.7,0.3-11.4,0.7-17.1,1.1c0,17.5,0,35,0,52.4c-10.5,1-21.1,2.1-31.6,3.3c0-50.5,0-101,0-151.5
				c17.2,0,34.4,0,51.6,0c15.5,0,27.7,3.8,36.5,11.3c8.8,7.5,13.1,18,13.1,31.7c0,9.9-1.8,18.2-5.5,24.8
				c-3.7,6.7-9.5,12.2-17.3,16.7c9.1,19,18.2,37.8,27.4,56.2c0,0.5,0,1,0,1.4c-11.3,0.7-22.6,1.6-33.9,2.5
				C86.1,159.6,78.3,143,70.6,126.2z M53.5,99.7c6.7-0.3,13.3-0.6,20-0.9c6-0.2,10.5-2.2,13.6-5.8c3-3.6,4.5-8.6,4.5-14.8
				c0-6.2-1.5-11.1-4.6-14.7c-3.1-3.5-7.6-5.2-13.5-5.1c-6.7,0.2-13.3,0.2-20,0.4C53.5,72.5,53.5,86.1,53.5,99.7z"/>
			
				<linearGradient id="SVGID_2_" gradientUnits="userSpaceOnUse" x1="195.9267" y1="131.634" x2="195.9267" y2="44.8379" gradientTransform="matrix(1 0 0 -1 0 210)">
				<stop  offset="0" style="stop-color:#FCF500"/>
				<stop  offset="1" style="stop-color:#9DA500"/>
			</linearGradient>
			<path class="st1" d="M253.3,102.2c0,13.3-2.4,25.1-7.1,35.5c-4.7,10.3-11.5,18.4-20.2,24.3c-8.7,5.8-18.7,9-29.9,9.6
				c-11.2,0.5-21.1-1.7-29.7-6.7c-8.6-5-15.4-12.5-20.2-22.6c-4.8-10-7.4-21.7-7.6-35.1c0-2.7,0-5.3,0-8c0-13.8,2.4-26.2,7.1-36.8
				c4.7-10.6,11.5-18.8,20.3-24.5c8.8-5.7,18.8-8.6,30-8.6c11.1,0,21,2.7,29.7,8.3c8.7,5.5,15.5,13.4,20.3,23.4
				c4.8,10.2,7.3,21.7,7.3,34.9C253.3,98,253.3,100.1,253.3,102.2z M221.1,97c0-13.6-2.2-24-6.5-31.1c-4.4-7.1-10.6-10.5-18.7-10.5
				c-15.8,0.1-24.2,12.9-25.1,38.2c0,3.4-0.1,6.9-0.1,10.3c0,13.6,2.1,24.1,6.4,31.3c4.3,7.1,10.6,10.5,19,10.2
				c8-0.3,14.1-4.1,18.5-11.3c4.3-7.3,6.5-17.5,6.6-30.8C221.1,101.2,221.1,99,221.1,97z"/>
			
				<linearGradient id="SVGID_3_" gradientUnits="userSpaceOnUse" x1="313.338" y1="132.4967" x2="313.338" y2="47.2143" gradientTransform="matrix(1 0 0 -1 0 210)">
				<stop  offset="0" style="stop-color:#FCF500"/>
				<stop  offset="1" style="stop-color:#9DA500"/>
			</linearGradient>
			<path class="st2" d="M352.1,112.8c-17,0-34,0-51,0c0,18,0,36,0,54c-10.5,0.1-21.1,0.2-31.6,0.5c0-45.3,0-90.7,0-136
				c29.2,0,58.5,0,87.7,0c0,8.4,0,16.8,0,25.2c-18.7,0-37.4,0-56.1,0c0,10.4,0,20.8,0,31.2c17,0,34,0,51,0
				C352.1,96,352.1,104.3,352.1,112.8z"/>
			
				<linearGradient id="SVGID_4_" gradientUnits="userSpaceOnUse" x1="413.8253" y1="131.7379" x2="413.8253" y2="45.0662" gradientTransform="matrix(1 0 0 -1 0 210)">
				<stop  offset="0" style="stop-color:#FCF500"/>
				<stop  offset="1" style="stop-color:#9DA500"/>
			</linearGradient>
			<path class="st3" d="M402.1,142.2c18.3,0.4,36.7,0.9,55,1.6c0,8.5,0,17.1,0,25.6c-28.9-1.3-57.8-2.1-86.6-2.5
				c0-45.2,0-90.5,0-135.7c10.5,0,21.1,0,31.6,0C402,68.3,402,105.2,402.1,142.2z"/>
			
				<linearGradient id="SVGID_5_" gradientUnits="userSpaceOnUse" x1="488.3786" y1="130.8759" x2="488.3786" y2="42.6959" gradientTransform="matrix(1 0 0 -1 0 210)">
				<stop  offset="0" style="stop-color:#FCF500"/>
				<stop  offset="1" style="stop-color:#9DA500"/>
			</linearGradient>
			<path class="st4" d="M504.2,171.8c-10.5-0.7-21-1.2-31.5-1.8c0-46.3,0-92.6-0.1-138.9c10.5,0,21,0,31.5,0
				C504.1,78.2,504.1,125,504.2,171.8z"/>
			
				<linearGradient id="SVGID_6_" gradientUnits="userSpaceOnUse" x1="576.5281" y1="127.0899" x2="576.5281" y2="31.9991" gradientTransform="matrix(1 0 0 -1 0 210)">
				<stop  offset="0" style="stop-color:#FCF500"/>
				<stop  offset="1" style="stop-color:#9DA500"/>
			</linearGradient>
			<path class="st5" d="M576.5,79.8c7.1-15.9,14.3-32.1,21.4-48.4c12,0,24.1,0,36.1,0c-12.2,25-24.4,49.4-36.6,73.2
				c12.5,25.4,25.1,51.5,37.6,78.3c-12.2-1.4-24.3-2.6-36.5-3.7c-7.4-17.4-14.7-34.5-22.1-51.3c-7.4,16-14.7,31.9-22,47.6
				c-12.1-0.9-24.3-1.8-36.4-2.6c12.5-23,25-46.2,37.5-70c-12.2-24.3-24.4-48.1-36.6-71.5c12,0,24,0,36,0
				C562.2,47.3,569.3,63.4,576.5,79.8z"/>
		</g>
	</g>
</g>
</svg>
